<?xml version="1.0" encoding="UTF-8"?>
<!--Generator: Apple Native CoreSVG 175.5-->
<!DOCTYPE svg
PUBLIC "-//W3C//DTD SVG 1.1//EN"
       "http://www.w3.org/Graphics/SVG/1.1/DTD/svg11.dtd">
<svg version="1.1" xmlns="http://www.w3.org/2000/svg" xmlns:xlink="http://www.w3.org/1999/xlink" width="31.0312" height="29.6406">
 <g>
  <rect height="29.6406" opacity="0" width="31.0312" x="0" y="0"/>
  <path d="M0 10.3906C0 17.0469 5.57812 23.5938 14.3906 29.2188C14.7188 29.4219 15.1875 29.6406 15.5156 29.6406C15.8438 29.6406 16.3125 29.4219 16.6562 29.2188C25.4531 23.5938 31.0312 17.0469 31.0312 10.3906C31.0312 4.85938 27.2344 0.953125 22.1719 0.953125C19.2812 0.953125 16.9375 2.32812 15.5156 4.4375C14.125 2.34375 11.75 0.953125 8.85938 0.953125C3.79688 0.953125 0 4.85938 0 10.3906ZM2.51562 10.3906C2.51562 6.23438 5.20312 3.46875 8.82812 3.46875C11.7656 3.46875 13.4531 5.29688 14.4531 6.85938C14.875 7.48438 15.1406 7.65625 15.5156 7.65625C15.8906 7.65625 16.125 7.46875 16.5781 6.85938C17.6562 5.32812 19.2812 3.46875 22.2031 3.46875C25.8281 3.46875 28.5156 6.23438 28.5156 10.3906C28.5156 16.2031 22.375 22.4688 15.8438 26.8125C15.6875 26.9219 15.5781 27 15.5156 27C15.4531 27 15.3438 26.9219 15.2031 26.8125C8.65625 22.4688 2.51562 16.2031 2.51562 10.3906Z" fill="#000000"/>
 </g>
</svg>
